<?xml version="1.0" encoding="UTF-8" standalone="no"?>
<svg
   height="512"
   viewBox="0 0 512 512"
   width="512"
   version="1.1"
   id="svg14"
   sodipodi:docname="favicon.svg"
   inkscape:version="1.2.1 (9c6d41e410, 2022-07-14)"
   xmlns:inkscape="http://www.inkscape.org/namespaces/inkscape"
   xmlns:sodipodi="http://sodipodi.sourceforge.net/DTD/sodipodi-0.dtd"
   xmlns="http://www.w3.org/2000/svg"
   xmlns:svg="http://www.w3.org/2000/svg">
  <defs
     id="defs18">
    <filter
       style="color-interpolation-filters:sRGB;"
       inkscape:label="Drop Shadow"
       id="filter2124"
       x="-0.037521974"
       y="-0.029999988"
       width="1.1063123"
       height="1.085">
      <feFlood
         flood-opacity="0.498039"
         flood-color="rgb(0,0,0)"
         result="flood"
         id="feFlood2114" />
      <feComposite
         in="flood"
         in2="SourceGraphic"
         operator="in"
         result="composite1"
         id="feComposite2116" />
      <feGaussianBlur
         in="composite1"
         stdDeviation="1"
         result="blur"
         id="feGaussianBlur2118" />
      <feOffset
         dx="2"
         dy="2"
         result="offset"
         id="feOffset2120" />
      <feComposite
         in="SourceGraphic"
         in2="offset"
         operator="over"
         result="fbSourceGraphic"
         id="feComposite2122" />
      <feColorMatrix
         result="fbSourceGraphicAlpha"
         in="fbSourceGraphic"
         values="0 0 0 -1 0 0 0 0 -1 0 0 0 0 -1 0 0 0 0 1 0"
         id="feColorMatrix2174" />
      <feFlood
         id="feFlood2176"
         flood-opacity="0.498039"
         flood-color="rgb(0,0,0)"
         result="flood"
         in="fbSourceGraphic" />
      <feComposite
         in2="fbSourceGraphic"
         id="feComposite2178"
         in="flood"
         operator="in"
         result="composite1" />
      <feGaussianBlur
         id="feGaussianBlur2180"
         in="composite1"
         stdDeviation="1"
         result="blur" />
      <feOffset
         id="feOffset2182"
         dx="2"
         dy="2"
         result="offset" />
      <feComposite
         in2="offset"
         id="feComposite2184"
         in="fbSourceGraphic"
         operator="over"
         result="composite2" />
    </filter>
    <filter
       style="color-interpolation-filters:sRGB;"
       inkscape:label="Drop Shadow"
       id="filter2136"
       x="-0.04066701"
       y="-0.029264724"
       width="1.1152232"
       height="1.0829167">
      <feFlood
         flood-opacity="0.498039"
         flood-color="rgb(0,0,0)"
         result="flood"
         id="feFlood2126" />
      <feComposite
         in="flood"
         in2="SourceGraphic"
         operator="in"
         result="composite1"
         id="feComposite2128" />
      <feGaussianBlur
         in="composite1"
         stdDeviation="1"
         result="blur"
         id="feGaussianBlur2130" />
      <feOffset
         dx="2"
         dy="2"
         result="offset"
         id="feOffset2132" />
      <feComposite
         in="SourceGraphic"
         in2="offset"
         operator="over"
         result="fbSourceGraphic"
         id="feComposite2134" />
      <feColorMatrix
         result="fbSourceGraphicAlpha"
         in="fbSourceGraphic"
         values="0 0 0 -1 0 0 0 0 -1 0 0 0 0 -1 0 0 0 0 1 0"
         id="feColorMatrix2186" />
      <feFlood
         id="feFlood2188"
         flood-opacity="0.498039"
         flood-color="rgb(0,0,0)"
         result="flood"
         in="fbSourceGraphic" />
      <feComposite
         in2="fbSourceGraphic"
         id="feComposite2190"
         in="flood"
         operator="in"
         result="composite1" />
      <feGaussianBlur
         id="feGaussianBlur2192"
         in="composite1"
         stdDeviation="1"
         result="blur" />
      <feOffset
         id="feOffset2194"
         dx="2"
         dy="2"
         result="offset" />
      <feComposite
         in2="offset"
         id="feComposite2196"
         in="fbSourceGraphic"
         operator="over"
         result="composite2" />
    </filter>
    <filter
       style="color-interpolation-filters:sRGB;"
       inkscape:label="Drop Shadow"
       id="filter2148"
       x="-0.040663565"
       y="-0.029268293"
       width="1.1152134"
       height="1.0829268">
      <feFlood
         flood-opacity="0.498039"
         flood-color="rgb(0,0,0)"
         result="flood"
         id="feFlood2138" />
      <feComposite
         in="flood"
         in2="SourceGraphic"
         operator="in"
         result="composite1"
         id="feComposite2140" />
      <feGaussianBlur
         in="composite1"
         stdDeviation="1"
         result="blur"
         id="feGaussianBlur2142" />
      <feOffset
         dx="2"
         dy="2"
         result="offset"
         id="feOffset2144" />
      <feComposite
         in="SourceGraphic"
         in2="offset"
         operator="over"
         result="fbSourceGraphic"
         id="feComposite2146" />
      <feColorMatrix
         result="fbSourceGraphicAlpha"
         in="fbSourceGraphic"
         values="0 0 0 -1 0 0 0 0 -1 0 0 0 0 -1 0 0 0 0 1 0"
         id="feColorMatrix2198" />
      <feFlood
         id="feFlood2200"
         flood-opacity="0.498039"
         flood-color="rgb(0,0,0)"
         result="flood"
         in="fbSourceGraphic" />
      <feComposite
         in2="fbSourceGraphic"
         id="feComposite2202"
         in="flood"
         operator="in"
         result="composite1" />
      <feGaussianBlur
         id="feGaussianBlur2204"
         in="composite1"
         stdDeviation="1"
         result="blur" />
      <feOffset
         id="feOffset2206"
         dx="2"
         dy="2"
         result="offset" />
      <feComposite
         in2="offset"
         id="feComposite2208"
         in="fbSourceGraphic"
         operator="over"
         result="composite2" />
    </filter>
    <filter
       style="color-interpolation-filters:sRGB;"
       inkscape:label="Drop Shadow"
       id="filter2160"
       x="-0.013702458"
       y="-0.019996667"
       width="1.0388236"
       height="1.0566572">
      <feFlood
         flood-opacity="0.498039"
         flood-color="rgb(0,0,0)"
         result="flood"
         id="feFlood2150" />
      <feComposite
         in="flood"
         in2="SourceGraphic"
         operator="in"
         result="composite1"
         id="feComposite2152" />
      <feGaussianBlur
         in="composite1"
         stdDeviation="1"
         result="blur"
         id="feGaussianBlur2154" />
      <feOffset
         dx="2"
         dy="2"
         result="offset"
         id="feOffset2156" />
      <feComposite
         in="SourceGraphic"
         in2="offset"
         operator="over"
         result="fbSourceGraphic"
         id="feComposite2158" />
      <feColorMatrix
         result="fbSourceGraphicAlpha"
         in="fbSourceGraphic"
         values="0 0 0 -1 0 0 0 0 -1 0 0 0 0 -1 0 0 0 0 1 0"
         id="feColorMatrix2210" />
      <feFlood
         id="feFlood2212"
         flood-opacity="0.498039"
         flood-color="rgb(0,0,0)"
         result="flood"
         in="fbSourceGraphic" />
      <feComposite
         in2="fbSourceGraphic"
         id="feComposite2214"
         in="flood"
         operator="in"
         result="composite1" />
      <feGaussianBlur
         id="feGaussianBlur2216"
         in="composite1"
         stdDeviation="1"
         result="blur" />
      <feOffset
         id="feOffset2218"
         dx="2"
         dy="2"
         result="offset" />
      <feComposite
         in2="offset"
         id="feComposite2220"
         in="fbSourceGraphic"
         operator="over"
         result="composite2" />
    </filter>
    <filter
       style="color-interpolation-filters:sRGB;"
       inkscape:label="Drop Shadow"
       id="filter2172"
       x="-0.037512355"
       y="-0.02999999"
       width="1.106285"
       height="1.085">
      <feFlood
         flood-opacity="0.498039"
         flood-color="rgb(0,0,0)"
         result="flood"
         id="feFlood2162" />
      <feComposite
         in="flood"
         in2="SourceGraphic"
         operator="in"
         result="composite1"
         id="feComposite2164" />
      <feGaussianBlur
         in="composite1"
         stdDeviation="1"
         result="blur"
         id="feGaussianBlur2166" />
      <feOffset
         dx="2"
         dy="2"
         result="offset"
         id="feOffset2168" />
      <feComposite
         in="SourceGraphic"
         in2="offset"
         operator="over"
         result="fbSourceGraphic"
         id="feComposite2170" />
      <feColorMatrix
         result="fbSourceGraphicAlpha"
         in="fbSourceGraphic"
         values="0 0 0 -1 0 0 0 0 -1 0 0 0 0 -1 0 0 0 0 1 0"
         id="feColorMatrix2222" />
      <feFlood
         id="feFlood2224"
         flood-opacity="0.498039"
         flood-color="rgb(0,0,0)"
         result="flood"
         in="fbSourceGraphic" />
      <feComposite
         in2="fbSourceGraphic"
         id="feComposite2226"
         in="flood"
         operator="in"
         result="composite1" />
      <feGaussianBlur
         id="feGaussianBlur2228"
         in="composite1"
         stdDeviation="1"
         result="blur" />
      <feOffset
         id="feOffset2230"
         dx="2"
         dy="2"
         result="offset" />
      <feComposite
         in2="offset"
         id="feComposite2232"
         in="fbSourceGraphic"
         operator="over"
         result="composite2" />
    </filter>
  </defs>
  <sodipodi:namedview
     id="namedview16"
     pagecolor="#ffffff"
     bordercolor="#000000"
     borderopacity="0.25"
     inkscape:showpageshadow="2"
     inkscape:pageopacity="0.0"
     inkscape:pagecheckerboard="0"
     inkscape:deskcolor="#d1d1d1"
     showgrid="false"
     inkscape:zoom="2.0058594"
     inkscape:cx="256.99708"
     inkscape:cy="257.49562"
     inkscape:window-width="1981"
     inkscape:window-height="1366"
     inkscape:window-x="1294"
     inkscape:window-y="24"
     inkscape:window-maximized="0"
     inkscape:current-layer="svg14" />
  <title
     id="title2" />
  <path
     d="M490.39,182.75c-5.55-13.19-14.77-22.7-26.67-27.49l-.16-.06a46.46,46.46,0,0,0-17-3.2h-.64c-27.24.41-55.05,23.56-69.19,57.61-10.37,24.9-11.56,51.68-3.18,71.64,5.54,13.2,14.78,22.71,26.73,27.5l.13.05a46.53,46.53,0,0,0,17,3.2c27.5,0,55.6-23.15,70-57.65C497.65,229.48,498.78,202.72,490.39,182.75Z"
     id="path4"
     style="fill:#f9f9f9;filter:url(#filter2172)" />
  <path
     d="M381.55,329.61c-15.71-9.44-30.56-18.37-40.26-34.41C314.53,250.8,298.37,224,256,224s-58.57,26.8-85.39,71.2c-9.72,16.06-24.6,25-40.36,34.48-18.07,10.86-36.74,22.08-44.8,44.16a66.93,66.93,0,0,0-4.65,25c0,35.95,28,65.2,62.4,65.2,17.75,0,36.64-6.15,56.63-12.66,19.22-6.26,39.09-12.73,56.27-12.73s37,6.47,56.15,12.73C332.2,457.85,351,464,368.8,464c34.35,0,62.3-29.25,62.3-65.2a67,67,0,0,0-4.75-25C418.29,351.7,399.61,340.47,381.55,329.61Z"
     id="path6"
     style="fill:#f9f9f9;filter:url(#filter2160)" />
  <path
     d="M150,188.85c11.9,14.93,27,23.15,42.52,23.15a42.88,42.88,0,0,0,6.33-.47c32.37-4.76,52.54-44.26,45.92-90C242,102.3,234.6,84.39,224,71.11,212.12,56.21,197,48,181.49,48a42.88,42.88,0,0,0-6.33.47c-32.37,4.76-52.54,44.26-45.92,90C132,157.67,139.4,175.56,150,188.85Z"
     id="path8"
     style="fill:#f9f9f9;filter:url(#filter2148)" />
  <path
     d="m 313.16,211.53 a 42.88,42.88 0 0 0 6.33,0.47 c 15.53,0 30.62,-8.22 42.52,-23.15 10.59,-13.29 17.95,-31.18 20.75,-50.4 v 0 c 6.62,-45.72 -13.55,-85.22 -45.92,-90 a 42.88,42.88 0 0 0 -6.33,-0.47 C 315,48 299.88,56.21 288,71.11 c -10.6,13.28 -18,31.19 -20.76,50.44 -6.62,45.72 13.55,85.22 45.92,89.98 z"
     id="path10"
     style="fill:#f9f9f9;filter:url(#filter2136)" />
  <path
     d="M111.59,308.8l.14-.05c11.93-4.79,21.16-14.29,26.69-27.48,8.38-20,7.2-46.75-3.15-71.65C120.94,175.16,92.85,152,65.38,152a46.4,46.4,0,0,0-17,3.2l-.14.05C36.34,160,27.11,169.54,21.58,182.73c-8.38,20-7.2,46.75,3.15,71.65C39.06,288.84,67.15,312,94.62,312A46.4,46.4,0,0,0,111.59,308.8Z"
     id="path12"
     style="fill:#f9f9f9;filter:url(#filter2124)" />
</svg>
